<mxfile host="Electron" agent="Mozilla/5.0 (Macintosh; Intel Mac OS X 10_15_7) AppleWebKit/537.36 (KHTML, like Gecko) draw.io/27.0.9 Chrome/134.0.6998.205 Electron/35.4.0 Safari/537.36" version="27.0.9">
  <diagram name="Page-1" id="INvGuKyZSB4JDWdQjlGP">
    <mxGraphModel dx="779" dy="729" grid="1" gridSize="10" guides="1" tooltips="1" connect="1" arrows="1" fold="1" page="1" pageScale="1" pageWidth="850" pageHeight="1100" math="0" shadow="0">
      <root>
        <mxCell id="0" />
        <mxCell id="1" parent="0" />
        <mxCell id="beKfshKWXfR_ayQnNfxA-18" value="TC" style="rounded=0;whiteSpace=wrap;html=1;fontSize=20;verticalAlign=top;align=center;fillColor=#dae8fc;strokeColor=#6c8ebf;" vertex="1" parent="1">
          <mxGeometry x="610" y="190" width="260" height="380" as="geometry" />
        </mxCell>
        <mxCell id="beKfshKWXfR_ayQnNfxA-2" value="BFM" style="rounded=0;whiteSpace=wrap;html=1;dashed=1;dashPattern=8 8;fillColor=#fad9d5;strokeColor=#ae4132;align=center;verticalAlign=top;fontSize=20;" vertex="1" parent="1">
          <mxGeometry x="90" y="180" width="300" height="410" as="geometry" />
        </mxCell>
        <mxCell id="beKfshKWXfR_ayQnNfxA-1" value="&lt;p style=&quot;margin: 0cm; font-family: Calibri, sans-serif;&quot; class=&quot;MsoNormal&quot;&gt;&lt;span style=&quot;&quot; lang=&quot;EN-US&quot;&gt;&lt;font&gt;virtual class base_frame_class&lt;/font&gt;&lt;/span&gt;&lt;/p&gt;&lt;p style=&quot;margin: 0cm; font-family: Calibri, sans-serif;&quot; class=&quot;MsoNormal&quot;&gt;&lt;span style=&quot;&quot; lang=&quot;EN-US&quot;&gt;&lt;font&gt;...&lt;/font&gt;&lt;/span&gt;&lt;/p&gt;&lt;p style=&quot;margin: 0cm; font-family: Calibri, sans-serif;&quot; class=&quot;MsoNormal&quot;&gt;&lt;span style=&quot;&quot; lang=&quot;EN-US&quot;&gt;&lt;font&gt;&amp;nbsp;&amp;nbsp;&amp;nbsp; function new (name, virtual eth_vif, ...);&lt;/font&gt;&lt;/span&gt;&lt;/p&gt;&lt;p style=&quot;margin: 0cm; font-family: Calibri, sans-serif;&quot; class=&quot;MsoNormal&quot;&gt;&lt;span style=&quot;&quot; lang=&quot;EN-US&quot;&gt;&lt;font&gt;&amp;nbsp;&amp;nbsp;&amp;nbsp; ...&lt;/font&gt;&lt;/span&gt;&lt;/p&gt;&lt;p style=&quot;margin: 0cm; font-family: Calibri, sans-serif;&quot; class=&quot;MsoNormal&quot;&gt;&lt;span style=&quot;&quot; lang=&quot;EN-US&quot;&gt;&lt;font&gt;&amp;nbsp;&amp;nbsp;&amp;nbsp; pure virtual function int calculate_crc (size, ...);&lt;/font&gt;&lt;/span&gt;&lt;/p&gt;&lt;p style=&quot;margin: 0cm; font-family: Calibri, sans-serif;&quot; class=&quot;MsoNormal&quot;&gt;&lt;span style=&quot;&quot; lang=&quot;EN-US&quot;&gt;&lt;font&gt;&amp;nbsp;&amp;nbsp;&amp;nbsp; ...&lt;/font&gt;&lt;/span&gt;&lt;/p&gt;&lt;p style=&quot;margin: 0cm; font-family: Calibri, sans-serif;&quot; class=&quot;MsoNormal&quot;&gt;&lt;span style=&quot;&quot; lang=&quot;EN-US&quot;&gt;&lt;font&gt;&amp;nbsp;&amp;nbsp;&amp;nbsp; virtual task send (size, ...);&lt;/font&gt;&lt;/span&gt;&lt;/p&gt;&lt;p style=&quot;margin: 0cm; font-family: Calibri, sans-serif;&quot; class=&quot;MsoNormal&quot;&gt;&lt;span style=&quot;&quot; lang=&quot;EN-US&quot;&gt;&lt;font&gt;&amp;nbsp;&amp;nbsp;&amp;nbsp; ...&lt;/font&gt;&lt;/span&gt;&lt;/p&gt;&lt;p style=&quot;margin: 0cm; font-family: Calibri, sans-serif;&quot; class=&quot;MsoNormal&quot;&gt;&lt;span style=&quot;&quot; lang=&quot;EN-US&quot;&gt;&lt;font&gt;endclass&lt;/font&gt;&lt;/span&gt;&lt;/p&gt;&lt;p style=&quot;margin: 0cm; font-family: Calibri, sans-serif;&quot; class=&quot;MsoNormal&quot;&gt;&lt;span style=&quot;&quot; lang=&quot;EN-US&quot;&gt;&lt;font&gt;&amp;nbsp;&lt;/font&gt;&lt;/span&gt;&lt;/p&gt;&lt;p style=&quot;margin: 0cm; font-family: Calibri, sans-serif;&quot; class=&quot;MsoNormal&quot;&gt;&lt;span style=&quot;&quot; lang=&quot;EN-US&quot;&gt;&lt;font&gt;&amp;nbsp;class tcp_frame_class extends base_frame_class&lt;/font&gt;&lt;/span&gt;&lt;/p&gt;&lt;p style=&quot;margin: 0cm; font-family: Calibri, sans-serif;&quot; class=&quot;MsoNormal&quot;&gt;&lt;span style=&quot;&quot; lang=&quot;EN-US&quot;&gt;&lt;font&gt;...&lt;/font&gt;&lt;/span&gt;&lt;/p&gt;&lt;p style=&quot;margin: 0cm; font-family: Calibri, sans-serif;&quot; class=&quot;MsoNormal&quot;&gt;&lt;span style=&quot;&quot; lang=&quot;EN-US&quot;&gt;&lt;font&gt;&amp;nbsp;&amp;nbsp;&amp;nbsp; virtual function int calculate_crc (size, ...);&lt;/font&gt;&lt;/span&gt;&lt;/p&gt;&lt;p style=&quot;margin: 0cm; font-family: Calibri, sans-serif;&quot; class=&quot;MsoNormal&quot;&gt;&lt;span style=&quot;&quot; lang=&quot;EN-US&quot;&gt;&lt;font&gt;&amp;nbsp;&amp;nbsp;&amp;nbsp; define here because it was pure&lt;/font&gt;&lt;/span&gt;&lt;/p&gt;&lt;p style=&quot;margin: 0cm; font-family: Calibri, sans-serif;&quot; class=&quot;MsoNormal&quot;&gt;&lt;span style=&quot;&quot; lang=&quot;EN-US&quot;&gt;&lt;font&gt;&amp;nbsp;&amp;nbsp;&amp;nbsp; ...&lt;/font&gt;&lt;/span&gt;&lt;/p&gt;&lt;p style=&quot;margin: 0cm; font-family: Calibri, sans-serif;&quot; class=&quot;MsoNormal&quot;&gt;&lt;span style=&quot;&quot; lang=&quot;EN-US&quot;&gt;&lt;font&gt;endclass&lt;/font&gt;&lt;/span&gt;&lt;/p&gt;&lt;p style=&quot;margin: 0cm; font-family: Calibri, sans-serif;&quot; class=&quot;MsoNormal&quot;&gt;&lt;span style=&quot;&quot; lang=&quot;EN-US&quot;&gt;&lt;font&gt;&amp;nbsp;&lt;/font&gt;&lt;/span&gt;&lt;/p&gt;&lt;p style=&quot;margin: 0cm; font-family: Calibri, sans-serif;&quot; class=&quot;MsoNormal&quot;&gt;&lt;span style=&quot;&quot; lang=&quot;EN-US&quot;&gt;&lt;font&gt;class udp_frame_class extends base_frame_class&lt;/font&gt;&lt;/span&gt;&lt;/p&gt;&lt;p style=&quot;margin: 0cm; font-family: Calibri, sans-serif;&quot; class=&quot;MsoNormal&quot;&gt;&lt;span style=&quot;&quot; lang=&quot;EN-US&quot;&gt;&lt;font&gt;...&lt;/font&gt;&lt;/span&gt;&lt;/p&gt;&lt;p style=&quot;margin: 0cm; font-family: Calibri, sans-serif;&quot; class=&quot;MsoNormal&quot;&gt;&lt;span style=&quot;&quot; lang=&quot;EN-US&quot;&gt;&lt;font&gt;&amp;nbsp;&amp;nbsp;&amp;nbsp; virtual function int calculate_crc (size, ...);&lt;/font&gt;&lt;/span&gt;&lt;/p&gt;&lt;p style=&quot;margin: 0cm; font-family: Calibri, sans-serif;&quot; class=&quot;MsoNormal&quot;&gt;&lt;span style=&quot;&quot; lang=&quot;EN-US&quot;&gt;&lt;font&gt;&amp;nbsp;&amp;nbsp;&amp;nbsp; define here because it was pure&lt;/font&gt;&lt;/span&gt;&lt;/p&gt;&lt;p style=&quot;margin: 0cm; font-family: Calibri, sans-serif;&quot; class=&quot;MsoNormal&quot;&gt;&lt;span style=&quot;&quot; lang=&quot;EN-US&quot;&gt;&lt;font&gt;&amp;nbsp;&amp;nbsp;&amp;nbsp; ...&lt;/font&gt;&lt;/span&gt;&lt;/p&gt;&lt;p style=&quot;margin: 0cm; font-family: Calibri, sans-serif;&quot; class=&quot;MsoNormal&quot;&gt;&lt;span style=&quot;&quot; lang=&quot;EN-US&quot;&gt;&lt;font&gt;endclass&lt;/font&gt;&lt;/span&gt;&lt;/p&gt;&lt;p style=&quot;margin: 0cm; font-family: Calibri, sans-serif;&quot; class=&quot;MsoNormal&quot;&gt;&lt;span style=&quot;&quot; lang=&quot;EN-US&quot;&gt;&lt;font&gt;&amp;nbsp;&lt;/font&gt;&lt;/span&gt;&lt;/p&gt;" style="text;html=1;align=left;verticalAlign=top;whiteSpace=wrap;rounded=0;" vertex="1" parent="1">
          <mxGeometry x="97" y="210" width="272.5" height="370" as="geometry" />
        </mxCell>
        <mxCell id="beKfshKWXfR_ayQnNfxA-3" value="Abstract temple&amp;nbsp;&lt;div&gt;virtual base class&lt;div&gt;can&#39;t be constructed&lt;/div&gt;&lt;/div&gt;" style="shape=note;whiteSpace=wrap;html=1;backgroundOutline=1;darkOpacity=0.05;size=10;" vertex="1" parent="1">
          <mxGeometry x="350" y="190" width="140" height="50" as="geometry" />
        </mxCell>
        <mxCell id="beKfshKWXfR_ayQnNfxA-4" value="" style="endArrow=classic;html=1;rounded=0;exitX=0;exitY=0.5;exitDx=0;exitDy=0;exitPerimeter=0;" edge="1" parent="1" source="beKfshKWXfR_ayQnNfxA-3">
          <mxGeometry width="50" height="50" relative="1" as="geometry">
            <mxPoint x="330" y="190" as="sourcePoint" />
            <mxPoint x="270" y="220" as="targetPoint" />
          </mxGeometry>
        </mxCell>
        <mxCell id="beKfshKWXfR_ayQnNfxA-5" value="pure must be defined later" style="shape=note;whiteSpace=wrap;html=1;backgroundOutline=1;darkOpacity=0.05;size=10;" vertex="1" parent="1">
          <mxGeometry x="410" y="260" width="90" height="40" as="geometry" />
        </mxCell>
        <mxCell id="beKfshKWXfR_ayQnNfxA-6" value="" style="endArrow=classic;html=1;rounded=0;entryX=0.478;entryY=0.118;entryDx=0;entryDy=0;entryPerimeter=0;exitX=0;exitY=0.5;exitDx=0;exitDy=0;exitPerimeter=0;" edge="1" parent="1" source="beKfshKWXfR_ayQnNfxA-5">
          <mxGeometry width="50" height="50" relative="1" as="geometry">
            <mxPoint x="420" y="280" as="sourcePoint" />
            <mxPoint x="369.5" y="280" as="targetPoint" />
          </mxGeometry>
        </mxCell>
        <mxCell id="beKfshKWXfR_ayQnNfxA-7" value="sub class" style="shape=note;whiteSpace=wrap;html=1;backgroundOutline=1;darkOpacity=0.05;size=10;" vertex="1" parent="1">
          <mxGeometry x="409" y="360" width="81" height="20" as="geometry" />
        </mxCell>
        <mxCell id="beKfshKWXfR_ayQnNfxA-8" value="" style="endArrow=classic;html=1;rounded=0;entryX=0.478;entryY=0.118;entryDx=0;entryDy=0;entryPerimeter=0;exitX=0;exitY=0.5;exitDx=0;exitDy=0;exitPerimeter=0;" edge="1" parent="1" source="beKfshKWXfR_ayQnNfxA-7">
          <mxGeometry width="50" height="50" relative="1" as="geometry">
            <mxPoint x="420" y="360" as="sourcePoint" />
            <mxPoint x="369.5" y="370" as="targetPoint" />
          </mxGeometry>
        </mxCell>
        <mxCell id="beKfshKWXfR_ayQnNfxA-9" value="once virtual&lt;div&gt;always virtual&lt;/div&gt;" style="shape=note;whiteSpace=wrap;html=1;backgroundOutline=1;darkOpacity=0.05;size=10;" vertex="1" parent="1">
          <mxGeometry x="410" y="440" width="90" height="40" as="geometry" />
        </mxCell>
        <mxCell id="beKfshKWXfR_ayQnNfxA-10" value="" style="endArrow=classic;html=1;rounded=0;entryX=0.478;entryY=0.118;entryDx=0;entryDy=0;entryPerimeter=0;exitX=-0.001;exitY=0.573;exitDx=0;exitDy=0;exitPerimeter=0;" edge="1" parent="1" source="beKfshKWXfR_ayQnNfxA-9">
          <mxGeometry width="50" height="50" relative="1" as="geometry">
            <mxPoint x="400" y="463" as="sourcePoint" />
            <mxPoint x="340" y="500" as="targetPoint" />
          </mxGeometry>
        </mxCell>
        <mxCell id="beKfshKWXfR_ayQnNfxA-11" value="" style="endArrow=classic;html=1;rounded=0;entryX=0.478;entryY=0.118;entryDx=0;entryDy=0;entryPerimeter=0;exitX=-0.015;exitY=0.327;exitDx=0;exitDy=0;exitPerimeter=0;" edge="1" parent="1" source="beKfshKWXfR_ayQnNfxA-9">
          <mxGeometry width="50" height="50" relative="1" as="geometry">
            <mxPoint x="390" y="360" as="sourcePoint" />
            <mxPoint x="330" y="400" as="targetPoint" />
          </mxGeometry>
        </mxCell>
        <mxCell id="beKfshKWXfR_ayQnNfxA-13" value="Virtuality" style="text;html=1;align=center;verticalAlign=middle;whiteSpace=wrap;rounded=0;fontSize=22;" vertex="1" parent="1">
          <mxGeometry x="190" y="130" width="100" height="30" as="geometry" />
        </mxCell>
        <mxCell id="beKfshKWXfR_ayQnNfxA-15" value="&lt;p style=&quot;margin: 0cm; font-family: Calibri, sans-serif;&quot; class=&quot;MsoNormal&quot;&gt;&lt;span style=&quot;&quot; lang=&quot;EN-US&quot;&gt;&lt;font&gt;&amp;nbsp;&lt;/font&gt;&lt;/span&gt;&lt;/p&gt;&lt;p style=&quot;margin: 0cm; font-family: Calibri, sans-serif;&quot; class=&quot;MsoNormal&quot;&gt;&lt;span style=&quot;&quot; lang=&quot;EN-US&quot;&gt;&lt;font&gt;base_frame_class frame[3:0];&lt;/font&gt;&lt;/span&gt;&lt;/p&gt;&lt;p style=&quot;margin: 0cm; font-family: Calibri, sans-serif;&quot; class=&quot;MsoNormal&quot;&gt;&lt;span style=&quot;&quot; lang=&quot;EN-US&quot;&gt;&lt;font&gt;tcp_frame_class tcp_frame;&lt;/font&gt;&lt;/span&gt;&lt;/p&gt;&lt;p style=&quot;margin: 0cm; font-family: Calibri, sans-serif;&quot; class=&quot;MsoNormal&quot;&gt;&lt;span style=&quot;&quot; lang=&quot;EN-US&quot;&gt;&lt;font&gt;udp_frame_class udp_frame;&lt;/font&gt;&lt;/span&gt;&lt;/p&gt;&lt;p style=&quot;margin: 0cm; font-family: Calibri, sans-serif;&quot; class=&quot;MsoNormal&quot;&gt;&lt;span style=&quot;&quot; lang=&quot;EN-US&quot;&gt;&lt;font&gt;...&lt;/font&gt;&lt;/span&gt;&lt;/p&gt;&lt;p style=&quot;margin: 0cm; font-family: Calibri, sans-serif;&quot; class=&quot;MsoNormal&quot;&gt;&lt;span style=&quot;&quot; lang=&quot;EN-US&quot;&gt;&lt;font&gt;&amp;nbsp;&lt;/font&gt;&lt;/span&gt;&lt;/p&gt;&lt;p style=&quot;margin: 0cm; font-family: Calibri, sans-serif;&quot; class=&quot;MsoNormal&quot;&gt;&lt;span style=&quot;&quot; lang=&quot;EN-US&quot;&gt;&lt;font&gt;initial&lt;/font&gt;&lt;/span&gt;&lt;/p&gt;&lt;p style=&quot;margin: 0cm; font-family: Calibri, sans-serif;&quot; class=&quot;MsoNormal&quot;&gt;&lt;span style=&quot;&quot; lang=&quot;EN-US&quot;&gt;&lt;font&gt;begin&lt;/font&gt;&lt;/span&gt;&lt;/p&gt;&lt;p style=&quot;margin: 0cm; font-family: Calibri, sans-serif;&quot; class=&quot;MsoNormal&quot;&gt;&lt;span style=&quot;&quot; lang=&quot;EN-US&quot;&gt;&lt;font&gt;&amp;nbsp;&amp;nbsp;&amp;nbsp; tcp_frame = new(...);&lt;/font&gt;&lt;/span&gt;&lt;/p&gt;&lt;p style=&quot;margin: 0cm; font-family: Calibri, sans-serif;&quot; class=&quot;MsoNormal&quot;&gt;&lt;span style=&quot;&quot; lang=&quot;EN-US&quot;&gt;&lt;font&gt;&amp;nbsp;&amp;nbsp;&amp;nbsp; udp_frame = new(...);&lt;/font&gt;&lt;/span&gt;&lt;/p&gt;&lt;p style=&quot;margin: 0cm; font-family: Calibri, sans-serif;&quot; class=&quot;MsoNormal&quot;&gt;&lt;span style=&quot;&quot; lang=&quot;EN-US&quot;&gt;&lt;font&gt;&amp;nbsp;&lt;/font&gt;&lt;/span&gt;&lt;/p&gt;&lt;p style=&quot;margin: 0cm; font-family: Calibri, sans-serif;&quot; class=&quot;MsoNormal&quot;&gt;&lt;span style=&quot;&quot; lang=&quot;EN-US&quot;&gt;&lt;font&gt;&amp;nbsp;&amp;nbsp;&amp;nbsp; ...&lt;/font&gt;&lt;/span&gt;&lt;/p&gt;&lt;p style=&quot;margin: 0cm; font-family: Calibri, sans-serif;&quot; class=&quot;MsoNormal&quot;&gt;&lt;span style=&quot;&quot; lang=&quot;EN-US&quot;&gt;&lt;font&gt;&amp;nbsp;&amp;nbsp;&amp;nbsp; frame[0] = tcp_frame;&lt;/font&gt;&lt;/span&gt;&lt;/p&gt;&lt;p style=&quot;margin: 0cm; font-family: Calibri, sans-serif;&quot; class=&quot;MsoNormal&quot;&gt;&lt;span style=&quot;&quot; lang=&quot;EN-US&quot;&gt;&lt;font&gt;&amp;nbsp;&amp;nbsp;&amp;nbsp; proc_frame.process(frame[0]);&lt;/font&gt;&lt;/span&gt;&lt;/p&gt;&lt;p style=&quot;margin: 0cm; font-family: Calibri, sans-serif;&quot; class=&quot;MsoNormal&quot;&gt;&lt;span style=&quot;&quot; lang=&quot;EN-US&quot;&gt;&lt;font&gt;&amp;nbsp;&amp;nbsp;&amp;nbsp; ...&lt;/font&gt;&lt;/span&gt;&lt;/p&gt;&lt;p style=&quot;margin: 0cm; font-family: Calibri, sans-serif;&quot; class=&quot;MsoNormal&quot;&gt;&lt;span style=&quot;&quot; lang=&quot;EN-US&quot;&gt;&lt;font&gt;&amp;nbsp;&amp;nbsp;&amp;nbsp; frame[1] = udp_frame;&lt;/font&gt;&lt;/span&gt;&lt;/p&gt;&lt;p style=&quot;margin: 0cm; font-family: Calibri, sans-serif;&quot; class=&quot;MsoNormal&quot;&gt;&lt;span style=&quot;&quot; lang=&quot;EN-US&quot;&gt;&lt;font&gt;&amp;nbsp;&amp;nbsp;&amp;nbsp; proc_frame.process(frame[1]);&lt;/font&gt;&lt;/span&gt;&lt;/p&gt;&lt;p style=&quot;margin: 0cm; font-family: Calibri, sans-serif;&quot; class=&quot;MsoNormal&quot;&gt;&lt;span style=&quot;&quot; lang=&quot;EN-US&quot;&gt;&lt;font&gt;&amp;nbsp;&amp;nbsp;&amp;nbsp; ...&lt;/font&gt;&lt;/span&gt;&lt;/p&gt;&lt;p style=&quot;margin: 0cm; font-family: Calibri, sans-serif;&quot; class=&quot;MsoNormal&quot;&gt;&lt;span style=&quot;&quot; lang=&quot;EN-US&quot;&gt;&lt;font&gt;end&lt;/font&gt;&lt;/span&gt;&lt;/p&gt;&lt;p style=&quot;margin: 0cm; font-family: Calibri, sans-serif;&quot; class=&quot;MsoNormal&quot;&gt;&lt;span style=&quot;&quot; lang=&quot;EN-US&quot;&gt;&lt;font&gt;&amp;nbsp;&lt;/font&gt;&lt;/span&gt;&lt;/p&gt;" style="text;html=1;align=left;verticalAlign=top;whiteSpace=wrap;rounded=0;" vertex="1" parent="1">
          <mxGeometry x="620" y="215" width="210" height="310" as="geometry" />
        </mxCell>
        <mxCell id="beKfshKWXfR_ayQnNfxA-16" value="sub-class instance is using parent/base handle" style="shape=note;whiteSpace=wrap;html=1;backgroundOutline=1;darkOpacity=0.05;size=10;" vertex="1" parent="1">
          <mxGeometry x="850" y="365" width="160" height="40" as="geometry" />
        </mxCell>
        <mxCell id="beKfshKWXfR_ayQnNfxA-17" value="" style="endArrow=classic;html=1;rounded=0;exitX=0;exitY=0.5;exitDx=0;exitDy=0;exitPerimeter=0;entryX=0.619;entryY=0.597;entryDx=0;entryDy=0;entryPerimeter=0;" edge="1" parent="1" source="beKfshKWXfR_ayQnNfxA-16" target="beKfshKWXfR_ayQnNfxA-15">
          <mxGeometry width="50" height="50" relative="1" as="geometry">
            <mxPoint x="860" y="190" as="sourcePoint" />
            <mxPoint x="800" y="220" as="targetPoint" />
          </mxGeometry>
        </mxCell>
        <mxCell id="beKfshKWXfR_ayQnNfxA-19" value="use base type handle everywhere" style="shape=note;whiteSpace=wrap;html=1;backgroundOutline=1;darkOpacity=0.05;size=10;" vertex="1" parent="1">
          <mxGeometry x="490" y="390" width="110" height="40" as="geometry" />
        </mxCell>
        <mxCell id="beKfshKWXfR_ayQnNfxA-20" value="" style="endArrow=classic;html=1;rounded=0;exitX=0.997;exitY=0.451;exitDx=0;exitDy=0;exitPerimeter=0;entryX=0.048;entryY=0.597;entryDx=0;entryDy=0;entryPerimeter=0;" edge="1" parent="1">
          <mxGeometry width="50" height="50" relative="1" as="geometry">
            <mxPoint x="599.6700000000001" y="411.03999999999996" as="sourcePoint" />
            <mxPoint x="630.0799999999999" y="403.06999999999994" as="targetPoint" />
          </mxGeometry>
        </mxCell>
        <mxCell id="beKfshKWXfR_ayQnNfxA-21" value="" style="endArrow=classic;html=1;rounded=0;entryX=0.048;entryY=0.726;entryDx=0;entryDy=0;entryPerimeter=0;exitX=0;exitY=0;exitDx=110;exitDy=25;exitPerimeter=0;" edge="1" parent="1">
          <mxGeometry width="50" height="50" relative="1" as="geometry">
            <mxPoint x="600" y="419" as="sourcePoint" />
            <mxPoint x="630.0799999999999" y="444.05999999999995" as="targetPoint" />
          </mxGeometry>
        </mxCell>
        <mxCell id="beKfshKWXfR_ayQnNfxA-22" value="Polymorphism" style="text;html=1;align=center;verticalAlign=middle;whiteSpace=wrap;rounded=0;fontSize=22;" vertex="1" parent="1">
          <mxGeometry x="660" y="130" width="160" height="30" as="geometry" />
        </mxCell>
        <mxCell id="beKfshKWXfR_ayQnNfxA-23" value="Advanced SV deep dive" style="text;html=1;align=center;verticalAlign=middle;whiteSpace=wrap;rounded=0;fontSize=22;" vertex="1" parent="1">
          <mxGeometry x="350" y="90" width="250" height="30" as="geometry" />
        </mxCell>
      </root>
    </mxGraphModel>
  </diagram>
</mxfile>
